<svg width="137" height="114" viewBox="0 0 137 114" fill="none" xmlns="http://www.w3.org/2000/svg">
<path d="M105.604 99.4759C111.147 99.4759 116.43 94.6891 120.096 86.3438" stroke="#242E35" stroke-width="2" stroke-linecap="round" stroke-linejoin="round"/>
<path d="M122.247 80.3815C124.06 73.9718 124.961 67.3404 124.923 60.6812C124.923 39.4002 116.201 21.8886 105.6 21.8886C94.9991 21.8886 86.9573 39.4691 85.244 60.6812C83.6458 78.7713 87.3504 96.9348 95.909 112.97H16.7807L20.074 99.4759H10.0504C10.0504 99.4759 -0.626888 84.6252 1.25473 59.3226C2.35669 44.2827 8.9108 30.1546 19.6961 19.5703H81.9435C81.9435 19.5703 66.3256 31.6667 65.6192 62.3618C64.9128 93.057 73.4741 99.4729 73.4741 99.4729" stroke="#242E35" stroke-width="2" stroke-linecap="round" stroke-linejoin="round"/>
<path d="M110.124 74.8389H120.135" stroke="#242E35" stroke-width="2" stroke-linecap="round" stroke-linejoin="round"/>
<path d="M115.946 86.0611H126.334C126.934 86.061 127.528 86.1786 128.083 86.4072C128.637 86.6358 129.141 86.971 129.565 87.3935C129.99 87.816 130.326 88.3177 130.556 88.8698C130.786 89.4219 130.904 90.0137 130.904 90.6113V93.2484H135.964V86.4139C135.964 84.8457 135.339 83.3417 134.225 82.2328C133.112 81.1239 131.602 80.501 130.027 80.501H115.946" stroke="#242E35" stroke-width="2" stroke-linecap="round" stroke-linejoin="round"/>
<path d="M115.54 74.8392V86.1529C115.54 86.1529 113.13 94.9324 106.705 95.0105H106.633C100.183 95.0105 94.8762 80.2718 94.8762 62.3612C94.8762 44.4506 100.183 29.7119 106.633 29.7119C113.082 29.7119 118.39 44.4506 118.39 62.3612C118.398 66.5363 118.099 70.7064 117.497 74.8382" stroke="#242E35" stroke-width="2" stroke-linecap="round" stroke-linejoin="round"/>
<path d="M105.604 99.4757H38.7498C38.7498 99.4757 30.4251 83.2076 33.4829 56.2779C36.8909 26.2719 51.5969 19.5742 51.5969 19.5742" stroke="#242E35" stroke-width="2" stroke-linecap="round" stroke-linejoin="round"/>
<path d="M29.4842 19.5703C29.4842 19.5703 12.5403 30.9128 10.4294 57.536C8.31234 84.2333 20.074 99.4729 20.074 99.4729" stroke="#242E35" stroke-width="2" stroke-linecap="round" stroke-linejoin="round"/>
<path d="M17.831 108.666H93.8435" stroke="#242E35" stroke-width="2" stroke-linecap="round" stroke-linejoin="round"/>
<g style="mix-blend-mode:multiply">
<path d="M130.03 80.4958H122.042C124.86 71.0386 124.842 61.1319 124.854 57.5177C124.879 50.7346 120.986 26.1561 110.123 22.9852C86.0682 15.9604 82.119 66.2704 73.7096 66.2704C62.9692 66.2704 59.8298 49.9478 47.1273 64.4736C34.4248 78.9994 30.425 80.4053 17.831 72.9074C5.23693 65.4095 3.37286 80.4948 3.37286 80.4948C4.30741 87.1996 6.57583 93.6513 10.0453 99.472L106.14 99.7909C112.998 97.4006 117.338 92.5357 120.082 86.3399C122.409 86.2299 124.742 86.2688 127.064 86.4561C127.661 86.5333 128.233 86.7472 128.733 87.0811C129.233 87.415 129.649 87.8597 129.948 88.3805C130.86 89.8304 131.243 91.5492 131.032 93.2474H135.966C135.966 93.2474 138.975 81.007 130.03 80.4958Z" fill="#E0BF9B"/>
</g>
<path d="M79.878 19.5705H88.3463L100.709 1.02832H75.9825L83.7073 12.2855" stroke="#242E35" stroke-width="2" stroke-linecap="round" stroke-linejoin="round"/>
</svg>
