<svg width="146" height="146" viewBox="0 0 146 146" fill="none" xmlns="http://www.w3.org/2000/svg">
<g clip-path="url(#clip0_1332_18034)">
<g clip-path="url(#clip1_1332_18034)">
<path d="M92.829 68.1203L91.4411 86.2249C91.2427 88.2844 90.2411 90.1628 88.6478 91.5378L50.6445 124.002C48.0947 126.132 44.2703 125.813 42.1926 123.183L24.1434 100.627C22.7406 98.9001 22.9615 96.2792 24.7411 94.7959L27.5301 92.4765" stroke="#242E35" stroke-width="2" stroke-miterlimit="10" stroke-linecap="round" stroke-linejoin="round"/>
<g style="mix-blend-mode:multiply">
<path d="M47.2845 107.162L53.9186 107.941L50.5612 102.167L57.0463 100.889L52.0956 96.489L57.9508 93.1845L51.8374 90.5575L56.3175 85.6597L49.7111 85.0142L52.5521 78.9259L46.0141 80.2845L46.7401 73.731L41.0989 77.0606L39.7404 70.5227L35.2879 75.554L32.0639 69.7516L29.3564 75.8122L24.5114 71.2514L23.8131 77.9384L17.8054 75.1503L19.2168 81.6077L12.5827 80.8288L15.9401 86.6035L9.45496 87.8815L14.3528 92.3617L8.55048 95.5856L14.6111 98.2931L10.1309 103.191L16.7373 103.836L13.9492 109.844L20.4871 108.486L19.6277 115.067L25.4023 111.709L26.7609 118.247L31.1605 113.297L34.3845 119.099L37.092 113.038L41.9899 117.519L42.6353 110.912L48.6959 113.62L47.2845 107.162Z" fill="#E0BF9B"/>
</g>
<path d="M89.6388 66.8348C89.6388 66.8348 116.416 77.1381 116.78 50.7558C117.144 24.3734 141.778 30.3897 129.934 47.744C118.09 65.0984 88.3823 34.6649 81.913 59.4626" stroke="#242E35" stroke-width="2" stroke-miterlimit="10" stroke-linecap="round" stroke-linejoin="round"/>
<path d="M59.824 104.209C60.375 102.841 60.0978 101.507 59.1534 100.312C58.1284 99.0631 56.8669 98.3509 55.1549 98.1499C52.8008 97.8735 50.2683 98.7478 47.8242 100.717C47.1068 101.284 46.6311 102.009 46.2638 102.92C45.7127 104.288 45.99 105.622 46.9344 106.818C47.8788 108.013 49.2209 108.778 50.9329 108.979C53.287 109.256 55.8195 108.381 58.2636 106.412C58.9282 105.926 59.4567 105.12 59.824 104.209ZM57.022 104.791C56.4381 105.33 55.7458 105.682 55.0007 106.116C53.2965 106.957 51.8036 107.476 50.4945 107.539C49.1853 107.603 48.1933 107.182 47.5461 106.412C46.8989 105.642 46.9188 104.733 47.553 103.766C47.8701 103.283 48.3206 102.771 48.9852 102.285C49.5691 101.746 50.2614 101.394 51.0065 100.961C52.7107 100.119 54.2036 99.6003 55.5127 99.537C56.8219 99.4738 57.8668 99.8134 58.4611 100.664C59.1083 101.434 59.0884 102.343 58.4542 103.31C58.0843 103.874 57.6337 104.385 57.022 104.791ZM63.7747 85.7107C64.0892 84.8798 64.1897 84.0238 63.89 83.251C63.8622 83.1176 63.7817 83.0647 63.7539 82.9313C63.6456 82.745 63.5373 82.5587 63.429 82.3724C63.3484 82.3196 63.3207 82.1862 63.3207 82.1862C63.293 82.0527 63.1318 81.947 63.1041 81.8136C62.0791 80.5651 60.6842 79.8807 58.9722 79.6797C57.4741 79.5038 55.9259 79.7559 54.4079 80.4889C54.0882 80.6249 53.7685 80.761 53.4765 81.0304C53.2374 81.2193 52.9705 81.2748 52.7314 81.4636C52.3589 81.6802 52.014 82.0303 51.6415 82.2469C51.4552 82.3552 51.2966 82.5969 51.0575 82.7858C51.0046 82.8664 50.899 83.0275 50.8461 83.1081C50.4484 83.5387 50.2647 83.9945 50.0282 84.5308C49.608 85.5228 49.6687 86.4845 50.1573 87.4965C50.2934 87.8162 50.5628 88.1082 50.6988 88.4279C50.8071 88.6142 50.9683 88.7199 51.0766 88.9062C52.0461 89.8878 53.1993 90.4137 54.6974 90.5896C55.5534 90.6901 56.5151 90.6294 57.3685 90.3825C57.5019 90.3548 57.6354 90.327 57.8216 90.2187C58.1413 90.0827 58.5416 89.9995 58.8613 89.8635C58.9948 89.8358 59.1282 89.808 59.2339 89.6469C59.687 89.4831 60.1124 89.1859 60.6184 88.9416C60.8047 88.8333 60.9381 88.8056 61.0438 88.6444C61.2301 88.5361 61.4164 88.4278 61.5221 88.2667C61.6555 88.2389 61.7612 88.0778 61.9475 87.9695C62.0003 87.8889 62.1866 87.7806 62.2395 87.7C62.4786 87.5111 62.5843 87.35 62.7429 87.1083C62.7957 87.0277 62.9014 86.8665 62.9543 86.786C63.4325 86.4082 63.6439 86.0859 63.7747 85.7107ZM60.9728 86.293C60.7865 86.4013 60.6808 86.5624 60.4945 86.6707C60.0162 87.0485 59.4574 87.3734 58.8986 87.6983C57.6475 88.3759 56.4744 88.7588 55.4069 88.9806C55.2735 89.0084 55.0067 89.0638 54.8732 89.0915C54.7398 89.1193 54.5258 89.0941 54.3924 89.1219C53.0832 89.1851 52.0912 88.7649 51.444 87.9947C50.7967 87.2244 50.8167 86.3156 51.4509 85.3487L51.5037 85.2681C51.8208 84.7846 52.2185 84.354 52.8302 83.9485C53.0165 83.8402 53.1222 83.6791 53.3085 83.5708C54.5847 82.6792 55.8358 82.0017 57.2757 81.5633C57.4092 81.5355 57.5426 81.5078 57.676 81.4801C57.9429 81.4246 58.1292 81.3163 58.3432 81.3414C58.4766 81.3137 58.7435 81.2583 58.8769 81.2305C59.758 81.117 60.5335 81.1647 61.0698 81.4012C61.1503 81.4541 61.2309 81.5069 61.2309 81.5069C61.3115 81.5598 61.3921 81.6126 61.4727 81.6655C61.7144 81.824 61.9561 81.9826 62.2256 82.2745C62.3062 82.3274 62.3339 82.4608 62.4422 82.6471C62.5505 82.8334 62.6588 83.0197 62.7142 83.2865C62.8251 83.8202 62.6692 84.4094 62.2992 84.9734C62.0878 85.2957 61.6373 85.8069 60.9728 86.293Z" fill="#242E35"/>
<path d="M63.2211 86.7302C63.3268 86.569 63.4854 86.3273 63.5105 86.1133C63.4854 86.3273 63.3268 86.569 63.2211 86.7302Z" fill="#242E35"/>
<path d="M59.1689 80.9612C55.4676 89.9425 70.2868 91.5955 70.2868 91.5955L45.4415 96.6191C34.9735 97.82 31.9341 95.2503 31.2488 92.9569C30.7549 91.2501 31.4368 89.5077 32.7381 88.4021L64.615 62.2917C66.4475 60.7278 68.8492 60.2287 71.231 60.6385L89.2455 64.2721C89.2455 64.2721 91.9565 72.9649 85.1344 75.6352C78.3123 78.3055 76.5361 73.107 82.192 68.1736C84.3693 66.2597 86.2425 66.5664 89.294 67.185" stroke="#242E35" stroke-width="2" stroke-miterlimit="10" stroke-linecap="round" stroke-linejoin="round"/>
</g>
</g>
<defs>
<clipPath id="clip0_1332_18034">
<rect width="146" height="146" fill="white"/>
</clipPath>
<clipPath id="clip1_1332_18034">
<rect width="80.9449" height="129.801" fill="white" transform="translate(70.1899 -7) rotate(33.2611)"/>
</clipPath>
</defs>
</svg>
