<svg width="99" height="120" viewBox="0 0 99 120" fill="none" xmlns="http://www.w3.org/2000/svg">
<path d="M61.876 51.86L55.3762 41.9315L63.8871 36.4476L64.7041 22.1362L69.6984 7.89678L51.4216 1.5166L50.2127 4.96535L66.0072 10.4797" stroke="#242E35" stroke-width="2" stroke-linecap="round" stroke-linejoin="round"/>
<path d="M50.1794 71.3351L53.0592 63.1218C54.2468 59.7337 54.037 56.0137 52.476 52.7799C50.9149 49.5462 48.1304 47.0635 44.735 45.878V45.878C41.3393 44.693 37.611 44.9024 34.37 46.4599C31.129 48.0175 28.6407 50.7957 27.4526 54.1836L19.8437 75.8794C19.4969 76.8082 19.3771 77.8062 19.4941 78.7905C19.6111 79.7749 19.9616 80.7172 20.5165 81.5394C21.6495 83.13 24.7225 85.6991 27.0958 82.7381C31.8388 76.8255 21.0941 58.9325 12.7791 70.3706" stroke="#242E35" stroke-width="2" stroke-linecap="round" stroke-linejoin="round"/>
<path d="M26.0089 101.104C29.173 101.104 31.738 98.5442 31.738 95.3872C31.738 92.2302 29.173 89.6709 26.0089 89.6709C22.8448 89.6709 20.2798 92.2302 20.2798 95.3872C20.2798 98.5442 22.8448 101.104 26.0089 101.104Z" stroke="#242E35" stroke-width="2" stroke-linecap="round" stroke-linejoin="round"/>
<path d="M65.0099 21.2659L46.734 14.8857L38.1242 27.4534L41.3515 37.0362L22.6717 42.1558L1.65552 102.083L5.28298 108.605L12.7699 111.219L13.4639 111.12L23.9998 101.117L25.7779 115.419L26.1846 115.902L34.628 118.85L39.3146 116.303L52.4446 78.8611L31.4589 71.5348" stroke="#242E35" stroke-width="2" stroke-linecap="round" stroke-linejoin="round"/>
<g style="mix-blend-mode:multiply">
<path d="M64.5764 84.4585C63.445 84.063 62.5172 83.2353 61.9973 82.1575C61.4774 81.0796 61.4078 79.8399 61.8038 78.7108L73.567 45.1675C73.6357 44.9711 73.7426 44.7902 73.8816 44.635C74.0205 44.4798 74.1887 44.3535 74.3766 44.2632C74.5645 44.1729 74.7683 44.1205 74.9766 44.1089C75.1848 44.0973 75.3932 44.1268 75.59 44.1956L88.1637 48.585C88.3605 48.6538 88.5689 48.6833 88.7771 48.6717C88.9853 48.6601 89.1892 48.6076 89.3771 48.5174C89.565 48.4271 89.7332 48.3008 89.8721 48.1456C90.0111 47.9904 90.118 47.8095 90.1868 47.613L91.3411 44.3201C91.41 44.1238 91.4396 43.9159 91.4279 43.7082C91.4163 43.5005 91.3637 43.2972 91.2733 43.1098C91.1828 42.9224 91.0562 42.7546 90.9007 42.6161C90.7451 42.4776 90.5638 42.371 90.3669 42.3025L77.7914 37.9141C77.3942 37.7753 77.0685 37.4848 76.8858 37.1065C76.7032 36.7281 76.6786 36.2929 76.8174 35.8965L77.5715 33.7461C77.6402 33.5497 77.747 33.3687 77.8858 33.2136C78.0246 33.0584 78.1928 32.9321 78.3806 32.8418C78.5684 32.7515 78.7722 32.6991 78.9804 32.6875C79.1885 32.6759 79.3969 32.7053 79.5936 32.7742L92.1682 37.1635C92.3649 37.2323 92.5733 37.2618 92.7815 37.2502C92.9896 37.2385 93.1934 37.1861 93.3812 37.0958C93.5691 37.0056 93.7372 36.8792 93.876 36.7241C94.0149 36.5689 94.1217 36.388 94.1904 36.1916L96.1995 30.4624C96.2685 30.2662 96.2981 30.0583 96.2865 29.8507C96.275 29.643 96.2225 29.4397 96.1321 29.2523C96.0417 29.0649 95.9152 28.8972 95.7598 28.7586C95.6044 28.62 95.4231 28.5134 95.2264 28.4448L94.8733 28.3212C94.4761 28.1824 94.1504 27.8919 93.9677 27.5136C93.7851 27.1352 93.7604 26.7 93.8992 26.3036V26.3036C94.0384 25.907 94.3296 25.5819 94.709 25.3996C95.0884 25.2173 95.5248 25.1929 95.9223 25.3317L96.2744 25.4543C96.4711 25.5231 96.6795 25.5526 96.8877 25.541C97.0958 25.5294 97.2996 25.4769 97.4874 25.3867C97.6752 25.2964 97.8434 25.1701 97.9822 25.0149C98.1211 24.8597 98.2279 24.6788 98.2966 24.4824L98.9111 22.7304C99.05 22.3338 99.0253 21.8984 98.8427 21.52C98.6601 21.1415 98.3343 20.8508 97.937 20.7118L83.2423 15.583C82.4816 15.3173 81.6759 15.2038 80.8712 15.2489C80.0665 15.294 79.2786 15.4968 78.5525 15.8457C77.8263 16.1947 77.1762 16.6829 76.6392 17.2826C76.1022 17.8822 75.6888 18.5816 75.4227 19.3406L55.3908 76.4728C55.1947 77.0319 54.8901 77.5469 54.4944 77.9885C54.0987 78.4301 53.6198 78.7896 53.0848 79.0465C52.5499 79.3034 51.9695 79.4526 51.3768 79.4857C50.7841 79.5188 50.1906 79.435 49.6303 79.2392V79.2392C41.4928 76.3991 32.3026 80.1936 29.0753 88.1709C28.2614 90.1756 27.8639 92.3243 27.907 94.4868C27.9501 96.6493 28.4329 98.7805 29.3261 100.751C30.2193 102.722 31.5043 104.491 33.1032 105.952C34.7021 107.412 36.5816 108.534 38.6278 109.248L54.4269 114.764C56.473 115.479 58.6432 115.771 60.806 115.624C62.9687 115.476 65.0789 114.892 67.0087 113.907C68.9385 112.922 70.6478 111.556 72.0327 109.892C73.4177 108.228 74.4497 106.301 75.066 104.227C77.5271 95.9841 72.7139 87.2995 64.5764 84.4585ZM47.538 109.125C46.6423 108.813 45.8597 108.242 45.2892 107.486C44.7186 106.729 44.3856 105.821 44.3324 104.876C44.2792 103.93 44.5081 102.991 44.9902 102.175C45.4723 101.36 46.186 100.705 47.0409 100.294C47.8958 99.8837 48.8536 99.7351 49.7931 99.8674C50.7327 99.9998 51.6118 100.407 52.3193 101.038C53.0268 101.669 53.5309 102.495 53.7679 103.412C54.0048 104.329 53.964 105.295 53.6506 106.188C53.4426 106.782 53.1194 107.328 52.6997 107.797C52.2799 108.266 51.7717 108.648 51.204 108.92C50.6364 109.193 50.0205 109.352 49.3914 109.387C48.7624 109.422 48.1326 109.333 47.538 109.125V109.125Z" fill="#E0BF9B"/>
</g>
</svg>
