<svg width="138" height="219" viewBox="0 0 138 219" fill="none" xmlns="http://www.w3.org/2000/svg">
<path d="M93.3775 127.651C104.364 113.505 121.679 115.642 122.291 115.479C122.155 115.84 125.303 147.793 93.3773 151.166V151.348L86.3823 151.348V151.167C55.6933 147.924 57.4778 115.502 57.4692 115.479C58.0793 115.642 75.417 113.569 86.3823 127.658V119.428V119.247C55.6933 116.005 57.4778 83.5829 57.4692 83.5596C58.0793 83.722 75.417 81.65 86.3823 95.7384V93.4128C81.0018 87.4226 78.0436 79.769 78.0236 71.7003C77.9843 55.6918 88.9782 47.738 89.8799 46.4766C90.7887 47.748 101.776 55.5824 101.736 71.7C101.716 79.7687 98.7579 87.4221 93.3775 93.4125V95.7314C104.364 81.5855 121.679 83.7225 122.291 83.5594C122.156 83.9209 125.303 115.874 93.3775 119.247V119.428V127.651Z" fill="#E0BF9B"/>
<path d="M26.9784 13.5122C25.9522 11.1178 24.5156 5.91845 26.9784 4.27656C30.057 2.2242 48.0151 -1.36743 53.6591 3.25038C56.2246 7.3551 55.1984 13.5122 56.2246 15.5645C57.2508 17.6169 54.6853 18.6431 54.6853 21.7216C54.6853 24.8002 52.1199 27.3656 52.1199 31.4704C52.1199 35.5751 56.7377 45.3238 56.2246 53.5332C55.7115 61.7427 49.5544 72.0045 56.2246 75.5961C62.8948 79.1878 79.8267 84.3187 81.366 99.7114C82.5974 112.026 82.5632 134.944 82.3922 144.863C85.1287 142.64 93.7828 138.296 106.507 138.706C122.413 139.219 138.319 142.811 136.267 150.507C134.214 158.204 101.377 161.282 93.1671 158.204C84.9577 155.125 98.8111 151.02 98.8111 156.664C98.8111 162.308 104.968 214.644 96.2456 211.052C87.5231 207.46 86.4969 202.843 82.3922 205.921C78.2875 209 63.4079 219.775 54.1722 217.722C44.9366 215.67 4.91555 206.434 2.86319 196.685C0.810829 186.937 -0.728442 99.1983 4.91555 93.5543C10.5595 87.9103 28.5175 80.727 29.5437 74.5699C30.5698 68.4129 24.4128 63.282 24.9258 49.9416C25.4389 36.6013 32.1089 34.5489 29.5437 31.4704C26.9784 28.3918 26.9784 24.2871 26.9784 20.6955C26.9784 17.1038 24.4132 17.1038 26.9784 13.5122Z" stroke="#242E35" stroke-width="2" stroke-linecap="round" stroke-linejoin="round"/>
<path d="M136.779 149.995L130.621 203.869C129.766 206.948 124.567 213.105 110.611 213.105C93.1659 213.105 118.307 201.304 104.454 200.277C90.6004 199.251 83.4174 205.408 82.9044 198.738C82.3913 192.068 78.2865 156.665 79.8258 152.047C81.3651 147.429 95.4035 141.72 108.491 142.599C121.578 143.478 131.229 144.666 131.229 147.767C131.229 150.868 123.994 156.036 103.323 155.002" stroke="#242E35" stroke-width="2" stroke-linecap="round" stroke-linejoin="round"/>
<path d="M2.86328 104.329C4.40255 99.8826 10.5596 91.1943 22.8738 92.0153C38.2665 93.0414 44.9367 118.183 44.4236 134.089C43.9105 149.994 42.3712 215.157 50.0676 215.67C56.7378 216.183 54.1723 181.806 54.1723 168.466C54.1723 155.125 54.1723 132.036 54.1723 123.314C54.1723 114.591 57.764 96.12 65.9734 94.0676C74.1829 92.0153 81.8792 98.6854 81.8792 104.329" stroke="#242E35" stroke-width="2" stroke-linecap="round" stroke-linejoin="round"/>
<path d="M25.4379 50.9678C29.3716 54.2173 41.1385 58.7667 56.7364 50.9678" stroke="#242E35" stroke-width="2" stroke-linecap="round" stroke-linejoin="round"/>
</svg>
