<svg width="113" height="125" viewBox="0 0 113 125" fill="none" xmlns="http://www.w3.org/2000/svg">
<path d="M79.9921 69.782C79.9921 69.782 88.2674 81.3883 100.688 72.2248C100.688 72.2248 101.801 99.5349 92.0088 103.088C82.2168 106.64 100.243 76.2217 108.031 83.9925C115.82 91.7632 108.031 107.749 98.9082 110.193C89.785 112.636 85.7783 111.747 85.7783 111.747C85.7783 111.747 82.8856 119.519 78.2118 120.851H18.7953C18.7953 120.851 17.6821 117.52 22.8012 116.188C27.9203 114.856 38.3785 111.304 32.147 99.7571C32.147 99.7571 29.477 95.7602 23.0229 93.9838C16.5688 92.2075 10.7836 89.0992 11.0062 76.6651C11.2289 64.231 18.3318 60.633 16.7733 48.6885L20.5565 36.7358C20.5565 36.7358 29.4952 28.946 45.0725 35.8291C60.6498 42.7122 65.5272 40.7935 67.0848 31.863C68.6424 22.9325 54.152 18.6328 57.9425 31.5547C61.8375 44.8339 77.6466 39.7852 78.449 28.3503C79.2051 17.5737 67.4401 29.2715 80.9027 32.0543C83.0129 32.4905 90.3539 27.8643 82.2749 15.8826C72.86 1.91245 32.8168 4.50301 23.0229 24.4867" stroke="#242E35" stroke-width="2" stroke-linecap="round" stroke-linejoin="round"/>
<path d="M89.3444 21.9395C89.3444 21.9395 99.3963 31.2417 98.1404 49.1516C98.1404 49.1516 97.4215 55.9576 96.5246 60.4351C96.5246 60.4351 99.7552 46.29 89.3452 49.6893C78.9352 53.0887 74.6231 60.4351 73.728 68.3165C72.8328 76.1979 72.4711 87.8386 76.5997 93.2119C80.7283 98.5853 88.8064 94.2864 87.0115 89.6294C85.2167 84.9724 78.4999 89.0663 73.1527 95.7046C73.1527 95.7046 69.9584 98.9416 63.676 97.1499V105.926C63.676 105.926 65.8035 99.6997 71.1925 101.838C72.2576 102.275 73.2096 102.948 73.977 103.804C74.863 104.773 76.6351 107.206 78.7544 106.833C79.3851 106.505 79.8768 105.961 80.1403 105.302C80.4038 104.643 80.4215 103.911 80.1903 103.24" stroke="#242E35" stroke-width="2" stroke-linecap="round" stroke-linejoin="round"/>
<path d="M62.3338 48.6885C61.7445 51.8853 61.9816 55.1792 63.0227 58.2591C64.7684 63.0277 70.6454 74.3692 67.093 84.7759C67.093 84.7759 66.0834 92.1614 54.3102 94.5688C54.3102 94.5688 43.9021 97.7179 45.1943 107.824C45.1943 107.824 45.218 112.273 53.5714 115.37" stroke="#242E35" stroke-width="2" stroke-linecap="round" stroke-linejoin="round"/>
<path d="M45.9867 111.243H72.1112C72.1112 111.243 60.2036 125.272 45.9867 111.243Z" fill="#242E35"/>
<path d="M41.2386 75.8309C44.2399 75.8309 46.673 73.4033 46.673 70.4086C46.673 67.414 44.2399 64.9863 41.2386 64.9863C38.2372 64.9863 35.8041 67.414 35.8041 70.4086C35.8041 73.4033 38.2372 75.8309 41.2386 75.8309Z" stroke="#242E35" stroke-width="2" stroke-linecap="round" stroke-linejoin="round"/>
<path d="M26.9072 69.3292C26.9072 69.3292 35.0407 62.4488 42.1119 63.1543C49.183 63.8597 55.5699 69.3292 55.5699 69.3292" stroke="#242E35" stroke-width="2" stroke-linecap="round" stroke-linejoin="round"/>
<g style="mix-blend-mode:multiply">
<path d="M39.3681 69.5332L14.3123 69.7844C14.391 76.3848 17.0827 82.6862 21.8 87.3141C26.5174 91.9419 32.8776 94.5205 39.4931 94.4874C46.1086 94.4542 52.4425 91.812 57.113 87.1371C61.7835 82.4622 64.4116 76.134 64.4239 69.5332H39.3681Z" fill="#E0BF9B"/>
</g>
</svg>
